<svg width="24" height="26" viewBox="0 0 24 26" fill="none" xmlns="http://www.w3.org/2000/svg">
<path d="M23.3409 18.1212V21.9621C23.3409 24.0835 18.1812 25.803 11.8181 25.803C5.45503 25.803 0.29541 24.0835 0.29541 21.9621V18.1212C0.29541 20.2426 5.45503 21.9621 11.8181 21.9621C18.1812 21.9621 23.3409 20.2426 23.3409 18.1212ZM11.8181 16.8409C5.45503 16.8409 0.29541 15.1214 0.29541 13V16.8409C0.29541 18.9623 5.45503 20.6818 11.8181 20.6818C18.1812 20.6818 23.3409 18.9623 23.3409 16.8409V13C23.3409 15.1214 18.1812 16.8409 11.8181 16.8409ZM11.8181 0.19693C5.45503 0.19693 0.29541 1.91638 0.29541 4.03784V6.59845C0.29541 8.71991 5.45503 10.4394 11.8181 10.4394C18.1812 10.4394 23.3409 8.71991 23.3409 6.59845V4.03784C23.3409 1.91638 18.1812 0.19693 11.8181 0.19693ZM11.8181 11.7197C5.45503 11.7197 0.29541 10.0002 0.29541 7.87875V11.7197C0.29541 13.8411 5.45503 15.5606 11.8181 15.5606C18.1812 15.5606 23.3409 13.8411 23.3409 11.7197V7.87875C23.3409 10.0002 18.1812 11.7197 11.8181 11.7197Z" fill="black"/>
</svg>
