<svg width="20" height="20" viewBox="0 0 20 20" fill="none" xmlns="http://www.w3.org/2000/svg">
<path fill-rule="evenodd" clip-rule="evenodd" d="M8.5 2C8.24909 1.99996 8.00234 2.06405 7.78317 2.18619C7.564 2.30833 7.37969 2.48447 7.24774 2.69787C7.11579 2.91128 7.04058 3.15487 7.02925 3.40552C7.01792 3.65617 7.07084 3.90556 7.183 4.13L7.346 4.455C7.42759 4.61783 7.46615 4.79884 7.45799 4.98078C7.44983 5.16273 7.39524 5.33956 7.29941 5.49444C7.20357 5.64932 7.06969 5.77709 6.9105 5.86558C6.75132 5.95408 6.57213 6.00035 6.39 6H3C2.73478 6 2.48043 6.10536 2.29289 6.29289C2.10536 6.48043 2 6.73478 2 7V8.194C3.82 8.085 5.5 9.525 5.5 11.5C5.5 13.475 3.82 14.915 2 14.806V17C2 17.2652 2.10536 17.5196 2.29289 17.7071C2.48043 17.8946 2.73478 18 3 18H5.194C5.085 16.18 6.525 14.5 8.5 14.5C10.475 14.5 11.915 16.18 11.806 18H13C13.2652 18 13.5196 17.8946 13.7071 17.7071C13.8946 17.5196 14 17.2652 14 17V13.61C14 12.816 14.835 12.3 15.545 12.654L15.869 12.817C16.0934 12.929 16.3428 12.9819 16.5933 12.9705C16.8439 12.9591 17.0874 12.8839 17.3008 12.7519C17.5141 12.62 17.6902 12.4357 17.8123 12.2166C17.9344 11.9975 17.9985 11.7508 17.9985 11.5C17.9985 11.2492 17.9344 11.0025 17.8123 10.7834C17.6902 10.5643 17.5141 10.38 17.3008 10.2481C17.0874 10.1161 16.8439 10.0409 16.5933 10.0295C16.3428 10.0181 16.0934 10.071 15.869 10.183L15.545 10.346C15.3822 10.4276 15.2012 10.4661 15.0192 10.458C14.8373 10.4498 14.6604 10.3952 14.5056 10.2994C14.3507 10.2036 14.2229 10.0697 14.1344 9.9105C14.0459 9.75132 13.9996 9.57213 14 9.39V7C14 6.73478 13.8946 6.48043 13.7071 6.29289C13.5196 6.10536 13.2652 6 13 6H10.61C9.816 6 9.3 5.165 9.654 4.455L9.817 4.13C9.92916 3.90556 9.98208 3.65617 9.97075 3.40552C9.95942 3.15487 9.88421 2.91128 9.75226 2.69787C9.62031 2.48447 9.436 2.30833 9.21683 2.18619C8.99766 2.06405 8.75091 1.99996 8.5 2ZM5.064 4C4.748 1.983 6.294 0 8.5 0C10.705 0 12.252 1.983 11.936 4H13C13.7956 4 14.5587 4.31607 15.1213 4.87868C15.6839 5.44129 16 6.20435 16 7V8.064C18.017 7.748 20 9.294 20 11.5C20 13.705 18.017 15.252 16 14.936V17C16 17.7956 15.6839 18.5587 15.1213 19.1213C14.5587 19.6839 13.7956 20 13 20H10.593C10.4172 20.0002 10.2441 19.9567 10.0893 19.8735C9.9345 19.7903 9.80279 19.6699 9.70602 19.5231C9.60925 19.3764 9.55045 19.2079 9.53491 19.0328C9.51938 18.8577 9.54758 18.6815 9.617 18.52L9.702 18.323C9.78738 18.124 9.82203 17.907 9.80286 17.6914C9.78369 17.4757 9.71128 17.2682 9.59214 17.0874C9.473 16.9066 9.31085 16.7583 9.12024 16.6556C8.92962 16.5529 8.7165 16.4992 8.5 16.4992C8.2835 16.4992 8.07038 16.5529 7.87976 16.6556C7.68915 16.7583 7.527 16.9066 7.40786 17.0874C7.28872 17.2682 7.21631 17.4757 7.19714 17.6914C7.17797 17.907 7.21262 18.124 7.298 18.323L7.383 18.521C7.683 19.221 7.169 20 6.407 20H3C2.20435 20 1.44129 19.6839 0.87868 19.1213C0.316071 18.5587 0 17.7956 0 17V13.593C0 12.831 0.779 12.317 1.48 12.617L1.677 12.702C1.87596 12.7874 2.093 12.822 2.30865 12.8029C2.5243 12.7837 2.73182 12.7113 2.9126 12.5921C3.09337 12.473 3.24174 12.3109 3.34441 12.1202C3.44707 11.9296 3.50081 11.7165 3.50081 11.5C3.50081 11.2835 3.44707 11.0704 3.34441 10.8798C3.24174 10.6891 3.09337 10.527 2.9126 10.4079C2.73182 10.2887 2.5243 10.2163 2.30865 10.1971C2.093 10.178 1.87596 10.2126 1.677 10.298L1.479 10.383C0.779 10.683 0 10.169 0 9.407V7C0 6.20435 0.316071 5.44129 0.87868 4.87868C1.44129 4.31607 2.20435 4 3 4H5.064Z" fill="black"/>
</svg>
