<svg width="18" height="18" viewBox="0 0 18 18" fill="none" xmlns="http://www.w3.org/2000/svg">
<path d="M13 6C11.3431 6 10 4.65685 10 3C10 1.34315 11.3431 0 13 0H15C16.6569 0 18 1.34315 18 3C18 4.65685 16.6569 6 15 6H13ZM4 10C1.79086 10 0 8.20914 0 6V4C0 1.79086 1.79086 0 4 0C6.20914 0 8 1.79086 8 4V6C8 8.20914 6.20914 10 4 10ZM14 18C11.7909 18 10 16.2091 10 14V12C10 9.79086 11.7909 8 14 8C16.2091 8 18 9.79086 18 12V14C18 16.2091 16.2091 18 14 18ZM3 18C1.34315 18 0 16.6569 0 15C0 13.3431 1.34315 12 3 12H5C6.65685 12 8 13.3431 8 15C8 16.6569 6.65685 18 5 18H3ZM2 6C2 7.10457 2.89543 8 4 8C5.10457 8 6 7.10457 6 6V4C6 2.89543 5.10457 2 4 2C2.89543 2 2 2.89543 2 4V6ZM12 14C12 15.1046 12.8954 16 14 16C15.1046 16 16 15.1046 16 14V12C16 10.8954 15.1046 10 14 10C12.8954 10 12 10.8954 12 12V14ZM12 3C12 3.55228 12.4477 4 13 4H15C15.5523 4 16 3.55228 16 3C16 2.44772 15.5523 2 15 2H13C12.4477 2 12 2.44772 12 3ZM2 15C2 15.5523 2.44772 16 3 16H5C5.55228 16 6 15.5523 6 15C6 14.4477 5.55228 14 5 14H3C2.44772 14 2 14.4477 2 15Z" fill="black"/>
</svg>
