<svg width="35" height="35" viewBox="0 0 35 35" fill="none" xmlns="http://www.w3.org/2000/svg">
<path d="M15.8073 9.22409C15.9491 9.08241 16.1401 9.00202 16.3399 9.00004C16.5396 8.99805 16.7322 9.07463 16.8767 9.21347C16.9474 9.28094 17.004 9.36201 17.043 9.45188C17.082 9.54175 17.1028 9.6386 17.1039 9.73668C17.1051 9.83476 17.0867 9.93208 17.0499 10.0229C17.013 10.1137 16.9584 10.1961 16.8893 10.2653L9.81692 17.3911L17.2799 24.7304C17.3498 24.7987 17.4054 24.8805 17.4433 24.9708C17.4813 25.0611 17.5008 25.1582 17.5008 25.2563C17.5008 25.3544 17.4813 25.4515 17.4433 25.5418C17.4054 25.6321 17.3498 25.7139 17.2799 25.7822C17.1367 25.9219 16.9452 26 16.7458 26C16.5464 26 16.3548 25.9219 16.2116 25.7822L8.22088 17.9255C8.15144 17.8576 8.09613 17.7764 8.05821 17.6868C8.02029 17.5971 8.0005 17.5008 8.00001 17.4033C7.99952 17.3059 8.01833 17.2093 8.05535 17.1193C8.09237 17.0293 8.14685 16.9476 8.2156 16.879L15.8073 9.22409ZM25.3076 9.22409C25.4492 9.08273 25.6401 9.00254 25.8396 9.00055C26.039 8.99857 26.2314 9.07495 26.3758 9.21347C26.4466 9.28094 26.5031 9.36201 26.5422 9.45188C26.5812 9.54175 26.6019 9.6386 26.6031 9.73668C26.6043 9.83476 26.5859 9.93208 26.5491 10.0229C26.5122 10.1137 26.4576 10.1961 26.3885 10.2653L19.3161 17.3911L26.7791 24.7304C26.849 24.7987 26.9045 24.8805 26.9425 24.9708C26.9804 25.0611 27 25.1582 27 25.2563C27 25.3544 26.9804 25.4515 26.9425 25.5418C26.9045 25.6321 26.849 25.7139 26.7791 25.7822C26.6359 25.9219 26.4443 26 26.2449 26C26.0456 26 25.854 25.9219 25.7108 25.7822L17.7211 17.9255C17.6517 17.8576 17.5964 17.7764 17.5585 17.6868C17.5205 17.5971 17.5007 17.5008 17.5002 17.4033C17.4998 17.3059 17.5186 17.2093 17.5556 17.1193C17.5926 17.0293 17.6471 16.9476 17.7158 16.879L25.3076 9.22409Z" fill="black"/>
</svg>
