<svg width="26" height="22" viewBox="0 0 26 22" fill="none" xmlns="http://www.w3.org/2000/svg">
<path d="M13.4972 0.798933C13.3531 0.686531 13.1755 0.625488 12.9927 0.625488C12.8099 0.625488 12.6323 0.686531 12.4881 0.798933L0.8125 9.903L1.82244 11.1802L3.25 10.0671V20.1251C3.25086 20.5558 3.42234 20.9686 3.7269 21.2732C4.03146 21.5777 4.44429 21.7492 4.875 21.7501H21.125C21.5557 21.7492 21.9685 21.5777 22.2731 21.2732C22.5777 20.9686 22.7491 20.5558 22.75 20.1251V10.0744L24.1776 11.1876L25.1875 9.91031L13.4972 0.798933ZM14.625 20.1251H11.375V13.6251H14.625V20.1251ZM16.25 20.1251V13.6251C16.2496 13.1942 16.0782 12.7811 15.7736 12.4765C15.4689 12.1718 15.0558 12.0005 14.625 12.0001H11.375C10.9442 12.0005 10.5311 12.1718 10.2264 12.4765C9.92177 12.7811 9.75043 13.1942 9.75 13.6251V20.1251H4.875V8.80043L13 2.47106L21.125 8.80856V20.1251H16.25Z" fill="white"/>
</svg>
