<svg width="18" height="22" viewBox="0 0 18 22" fill="none" xmlns="http://www.w3.org/2000/svg">
<path d="M17.7607 4.47827L13.6698 0.2475C13.5937 0.168948 13.5035 0.106659 13.4042 0.0641925C13.3048 0.0217257 13.1984 -8.71419e-05 13.0909 2.61629e-07H4.90909C4.4751 2.61629e-07 4.05889 0.178296 3.75201 0.495666C3.44513 0.813035 3.27273 1.24348 3.27273 1.69231V3.38462H1.63636C1.20237 3.38462 0.786157 3.56291 0.47928 3.88028C0.172402 4.19765 0 4.6281 0 5.07692V20.3077C0 20.7565 0.172402 21.187 0.47928 21.5043C0.786157 21.8217 1.20237 22 1.63636 22H13.0909C13.5249 22 13.9411 21.8217 14.248 21.5043C14.5549 21.187 14.7273 20.7565 14.7273 20.3077V18.6154H16.3636C16.7976 18.6154 17.2138 18.4371 17.5207 18.1197C17.8276 17.8023 18 17.3719 18 16.9231V5.07692C18.0001 4.96577 17.979 4.85569 17.9379 4.75297C17.8969 4.65025 17.8366 4.55691 17.7607 4.47827ZM9.81818 17.7692H4.90909C4.6921 17.7692 4.48399 17.6801 4.33055 17.5214C4.17711 17.3627 4.09091 17.1475 4.09091 16.9231C4.09091 16.6987 4.17711 16.4834 4.33055 16.3248C4.48399 16.1661 4.6921 16.0769 4.90909 16.0769H9.81818C10.0352 16.0769 10.2433 16.1661 10.3967 16.3248C10.5502 16.4834 10.6364 16.6987 10.6364 16.9231C10.6364 17.1475 10.5502 17.3627 10.3967 17.5214C10.2433 17.6801 10.0352 17.7692 9.81818 17.7692ZM9.81818 14.3846H4.90909C4.6921 14.3846 4.48399 14.2955 4.33055 14.1368C4.17711 13.9781 4.09091 13.7629 4.09091 13.5385C4.09091 13.314 4.17711 13.0988 4.33055 12.9401C4.48399 12.7815 4.6921 12.6923 4.90909 12.6923H9.81818C10.0352 12.6923 10.2433 12.7815 10.3967 12.9401C10.5502 13.0988 10.6364 13.314 10.6364 13.5385C10.6364 13.7629 10.5502 13.9781 10.3967 14.1368C10.2433 14.2955 10.0352 14.3846 9.81818 14.3846ZM16.3636 16.9231H14.7273V8.46154C14.7274 8.35039 14.7063 8.24031 14.6652 8.13759C14.6241 8.03487 14.5639 7.94152 14.488 7.86288L10.397 3.63212C10.321 3.55356 10.2307 3.49127 10.1314 3.44881C10.0321 3.40634 9.92566 3.38453 9.81818 3.38462H4.90909V1.69231H12.7524L16.3636 5.42702V16.9231Z" fill="#0A5699"/>
</svg>
