<svg width="22" height="20" viewBox="0 0 22 20" fill="none" xmlns="http://www.w3.org/2000/svg">
<path d="M7.93023 9.97674C7.93023 9.49991 7.93023 9.26149 8.008 9.07321C8.11207 8.82298 8.31116 8.62426 8.56158 8.52065C8.74986 8.44186 8.98828 8.44186 9.46512 8.44186H12.5349C13.0117 8.44186 13.2501 8.44186 13.4384 8.51963C13.6886 8.6237 13.8874 8.82279 13.991 9.07321C14.0698 9.26149 14.0698 9.49991 14.0698 9.97674C14.0698 10.4536 14.0698 10.692 13.992 10.8803C13.8879 11.1305 13.6888 11.3292 13.4384 11.4328C13.2501 11.5116 13.0117 11.5116 12.5349 11.5116H9.46512C8.98828 11.5116 8.74986 11.5116 8.56158 11.4339C8.31135 11.3298 8.11263 11.1307 8.00902 10.8803C7.93023 10.692 7.93023 10.4536 7.93023 9.97674Z" stroke="black" stroke-width="1.5"/>
<path d="M19.6977 4.86047V11C19.6977 14.8587 19.6977 16.7886 18.4984 17.9868C17.3002 19.186 15.3703 19.186 11.5116 19.186H10.4884M2.30233 4.86047V11C2.30233 14.8587 2.30233 16.7886 3.50158 17.9868C4.22195 18.7082 5.20837 18.9957 6.7187 19.1103M11 0.767442H2.81395C1.84902 0.767442 1.36707 0.767442 1.06726 1.06726C0.767442 1.36707 0.767442 1.84902 0.767442 2.81395C0.767442 3.77888 0.767442 4.26084 1.06726 4.56065C1.36707 4.86046 1.84902 4.86047 2.81395 4.86047H19.186C20.151 4.86047 20.6329 4.86046 20.9327 4.56065C21.2326 4.26084 21.2326 3.77888 21.2326 2.81395C21.2326 1.84902 21.2326 1.36707 20.9327 1.06726C20.6329 0.767442 20.151 0.767442 19.186 0.767442H15.093" stroke="black" stroke-width="1.5" stroke-linecap="round"/>
</svg>
